<svg width="31" height="31" fill="none" xmlns="http://www.w3.org/2000/svg"><path d="M20.188 4.25c-1.681 0-3.205.315-4.395.908-1.19.593-2.168 1.56-2.168 2.842v3.75c0 .12.04.238.059.352a11.416 11.416 0 00-2.871-.352c-1.681 0-3.205.315-4.395.908-1.19.594-2.168 1.56-2.168 2.842V23c0 1.282.978 2.248 2.168 2.842 1.19.593 2.714.908 4.394.908 1.681 0 3.205-.315 4.395-.908 1.19-.593 2.168-1.56 2.168-2.842v-.38c.86.226 1.802.38 2.813.38 1.68 0 3.204-.315 4.394-.908s2.168-1.56 2.168-2.842V8c0-1.282-.978-2.249-2.168-2.842-1.19-.593-2.714-.908-4.395-.908zm0 1.875c1.428 0 2.699.308 3.544.732.846.425 1.143.872 1.143 1.143s-.297.718-1.143 1.143c-.845.424-2.116.732-3.544.732-1.429 0-2.7-.308-3.545-.732C15.797 8.718 15.5 8.27 15.5 8s.297-.718 1.143-1.143c.845-.424 2.116-.732 3.544-.732zM15.5 10.666c.099.055.19.124.293.176 1.19.593 2.714.908 4.395.908 1.68 0 3.204-.315 4.394-.908.103-.052.194-.121.293-.176v1.084c0 .271-.297.718-1.143 1.143-.845.424-2.116.732-3.544.732-1.429 0-2.7-.308-3.545-.732-.846-.425-1.143-.872-1.143-1.143v-1.084zm-4.688 2.959c1.429 0 2.7.308 3.545.732.846.425 1.143.872 1.143 1.143s-.297.718-1.143 1.143c-.845.424-2.116.732-3.544.732-1.429 0-2.7-.308-3.545-.732-.846-.425-1.143-.872-1.143-1.143s.297-.718 1.143-1.143c.846-.424 2.116-.732 3.545-.732zm14.063.791V15.5c0 .271-.297.718-1.143 1.143-.845.424-2.116.732-3.544.732a8.906 8.906 0 01-2.813-.44V15.5c0-.12-.04-.238-.059-.352.872.228 1.839.352 2.872.352 1.68 0 3.204-.315 4.394-.908.103-.052.194-.121.293-.176zm-18.75 3.75c.099.055.19.125.293.176 1.19.593 2.714.908 4.394.908 1.681 0 3.205-.315 4.395-.908.103-.051.194-.121.293-.176v1.084c0 .271-.297.718-1.143 1.143-.845.424-2.116.732-3.544.732-1.429 0-2.7-.308-3.545-.732-.846-.425-1.143-.872-1.143-1.143v-1.084zm18.75 0v1.084c0 .271-.297.718-1.143 1.143-.845.424-2.116.732-3.544.732-1.066 0-2.03-.15-2.813-.41v-1.817c.86.227 1.798.352 2.813.352 1.68 0 3.204-.315 4.394-.908.103-.051.194-.121.293-.176zm-18.75 3.75c.099.055.19.125.293.176 1.19.593 2.714.908 4.394.908 1.681 0 3.205-.315 4.395-.908.103-.051.194-.121.293-.176V23c0 .271-.297.718-1.143 1.143-.845.424-2.116.732-3.544.732-1.429 0-2.7-.308-3.545-.732-.846-.425-1.143-.872-1.143-1.143v-1.084z" fill="#D4B160"/></svg>