<svg width="31" height="31" viewBox="0 0 31 31" fill="none" xmlns="http://www.w3.org/2000/svg">
<path d="M15.5 6.125C14.4636 6.125 13.625 6.96362 13.625 8C13.625 9.03638 14.4636 9.875 15.5 9.875C16.5364 9.875 17.375 9.03638 17.375 8C17.375 6.96362 16.5364 6.125 15.5 6.125ZM15.5 13.625C14.4636 13.625 13.625 14.4636 13.625 15.5C13.625 16.5364 14.4636 17.375 15.5 17.375C16.5364 17.375 17.375 16.5364 17.375 15.5C17.375 14.4636 16.5364 13.625 15.5 13.625ZM15.5 21.125C14.4636 21.125 13.625 21.9636 13.625 23C13.625 24.0364 14.4636 24.875 15.5 24.875C16.5364 24.875 17.375 24.0364 17.375 23C17.375 21.9636 16.5364 21.125 15.5 21.125Z" fill="#D4B160"/>
</svg>
