<svg width="31" height="31" fill="none" xmlns="http://www.w3.org/2000/svg"><path d="M1.438 4.25v19.688h2.958C4.814 25.547 6.264 26.75 8 26.75s3.186-1.201 3.604-2.813h7.793c.417 1.612 1.867 2.813 3.603 2.813 1.736 0 3.186-1.201 3.604-2.813h2.959v-9.755l-.264-.293-5.625-5.625L23.38 8h-5.069V4.25H1.438zm1.875 1.875h13.124v15.938h-4.834C11.187 20.45 9.736 19.25 8 19.25c-1.736 0-3.186 1.201-3.604 2.813H3.313V6.124zm15 3.75h4.277l5.098 5.098v7.09h-1.084C26.186 20.45 24.736 19.25 23 19.25s-3.186 1.201-3.604 2.813h-1.084V9.874zM8 21.125A1.86 1.86 0 019.875 23 1.86 1.86 0 018 24.875 1.86 1.86 0 016.125 23 1.86 1.86 0 018 21.125zm15 0A1.86 1.86 0 0124.875 23 1.86 1.86 0 0123 24.875 1.86 1.86 0 0121.125 23 1.86 1.86 0 0123 21.125z" fill="#D4B160"/></svg>