<svg width="31" height="31" fill="none" xmlns="http://www.w3.org/2000/svg"><path d="M15.5 3.313c-5.17 0-9.375 4.205-9.375 9.374 0 5.17 4.206 9.376 9.375 9.376 5.17 0 9.375-4.206 9.375-9.375 0-5.17-4.206-9.376-9.375-9.376zm0 1.874c4.135 0 7.5 3.365 7.5 7.5 0 4.136-3.365 7.5-7.5 7.5S8 16.823 8 12.688s3.365-7.5 7.5-7.5zm-.938 1.875v1.116a2.886 2.886 0 00-1.569 1.373 2.765 2.765 0 00-.306 1.261 2.804 2.804 0 00.83 1.983c.255.256.56.463.895.607.336.143.704.223 1.088.223a.98.98 0 01.372.071.902.902 0 01.494.495.98.98 0 01.072.371.916.916 0 01-.566.867.98.98 0 01-.372.071.98.98 0 01-.372-.071.902.902 0 01-.296-.198.933.933 0 01-.27-.668h-1.874a2.766 2.766 0 00.803 1.946 2.887 2.887 0 001.072.688v1.116h1.874v-1.116a2.835 2.835 0 001.839-2.19 2.766 2.766 0 00-.449-2.01 2.872 2.872 0 00-1.24-1.024 2.77 2.77 0 00-1.087-.223.98.98 0 01-.372-.071.902.902 0 01-.494-.495.98.98 0 01-.072-.371.98.98 0 01.072-.372.902.902 0 01.494-.495.979.979 0 01.372-.071c.534 0 .938.403.938.938h1.875a2.766 2.766 0 00-.14-.867 2.856 2.856 0 00-1.735-1.768V7.062h-1.875zM2.376 20.188v7.5H4.25v-5.625h5.045a11.339 11.339 0 01-2.157-1.875H2.375zm21.487 0a11.281 11.281 0 01-2.157 1.875h5.045v5.625h1.875v-7.5h-4.763zm-17.737 3.75v1.875h18.75v-1.875H6.125z" fill="#D4B160"/></svg>