<svg width="31" height="31" fill="none" xmlns="http://www.w3.org/2000/svg"><path d="M15.47 1.994l-.673.645L8.234 9.23l-.673.645 4.16 4.16.644-.674.322-.322 1.963 1.963L3.576 26.076l1.348 1.348L15.998 16.35l1.934 1.933-.323.322-.674.645 4.16 4.16.645-.674 7.237-7.236-.674-.645-2.813-2.841-.644-.645-.674.645-.264.263-5.244-5.214.938-.938-.674-.645-2.813-2.841-.644-.645zm0 2.637l1.495 1.494-5.244 5.244-1.494-1.494 5.244-5.244zm1.905 3.78l5.215 5.214-3.34 3.34-5.215-5.215 3.34-3.34zm7.47 5.595L26.34 15.5l-5.244 5.244-1.494-1.494 5.244-5.244z" fill="#D4B160"/></svg>