<svg width="31" height="31" fill="none" xmlns="http://www.w3.org/2000/svg"><g clip-path="url(#clip0_41_1142)"><path d="M8 5.188c-3.094 0-5.625 2.53-5.625 5.625 0 1.874.938 3.563 2.344 4.5C2.187 16.626.5 19.156.5 22.063h1.875c0-3.094 2.531-5.625 5.625-5.625s5.625 2.53 5.625 5.625H15.5c0-3 2.438-5.532 5.438-5.625h.187a5.588 5.588 0 005.156-3.375s0-.094.094-.094c.093-.093.093-.281.093-.375 0-.094.002-.095.095-.188 0-.094.094-.28.094-.374 0-.094 0-.188.093-.282 0-.094 0-.188.093-.282v-.562c0-3.094-2.53-5.625-5.625-5.625-3.093 0-5.625 2.531-5.625 5.625 0 1.875.938 3.563 2.344 4.5-1.406.657-2.531 1.78-3.281 3.093-.75-1.312-1.875-2.436-3.281-3.092 1.312-1.032 2.25-2.72 2.25-4.595 0-3.093-2.531-5.624-5.625-5.624zm0 1.875a3.761 3.761 0 013.75 3.75A3.761 3.761 0 018 14.563a3.761 3.761 0 01-3.75-3.75A3.761 3.761 0 018 7.063zm13.125 0a3.761 3.761 0 013.75 3.75 3.761 3.761 0 01-3.75 3.75 3.761 3.761 0 01-3.75-3.75 3.761 3.761 0 013.75-3.75zm1.968 10.312v1.968c-.562.094-1.124.377-1.593.658l-1.406-1.407-1.313 1.311 1.407 1.407c-.375.468-.562 1.032-.656 1.688h-2.157v1.875h1.968c.094.563.377 1.126.658 1.688l-1.407 1.407 1.311 1.31 1.407-1.406c.468.282 1.032.564 1.595.658V30.5h1.875v-1.968c.562-.094 1.124-.377 1.593-.658l1.406 1.407 1.313-1.311-1.407-1.407c.375-.468.562-1.032.656-1.688H30.5V23h-1.968c-.094-.563-.377-1.126-.658-1.688l1.407-1.407-1.311-1.31L26.563 20c-.468-.282-1.032-.564-1.595-.658v-1.968h-1.875zm.845 3.75c1.593 0 2.812 1.219 2.812 2.813 0 1.593-1.219 2.812-2.813 2.812-1.593 0-2.812-1.219-2.812-2.813 0-1.593 1.219-2.812 2.813-2.812zm0 1.875a.816.816 0 00-.345.08 1.08 1.08 0 00-.512.513.816.816 0 00-.081.345c0 .117.03.234.08.344a1.08 1.08 0 00.513.512c.11.052.227.081.345.081.468 0 .937-.469.937-.938 0-.468-.469-.937-.938-.937z" fill="#D4B160"/></g><defs><clipPath id="clip0_41_1142"><path fill="#fff" transform="translate(.5 .5)" d="M0 0h30v30H0z"/></clipPath></defs></svg>