<svg width="31" height="31" fill="none" xmlns="http://www.w3.org/2000/svg"><path d="M12.688 7.063V8.38c-4.655 1.201-8.053 5.32-8.32 10.283-1.1.385-1.993 1.238-1.993 2.461v2.813h26.25v-2.813c0-1.223-.894-2.076-1.992-2.46-.267-4.963-3.666-9.083-8.32-10.284V7.062h-5.625zm1.904 1.875h1.845a.953.953 0 000 .322v5.303h1.875v-4.22c3.505 1.107 6.156 4.194 6.534 7.97H23v1.875h2.813a.92.92 0 01.937.937v.938H4.25v-.938c0-.531.406-.938.938-.938H8v-1.875H6.154c.377-3.775 3.029-6.862 6.534-7.968v4.219h1.874V9.405a.967.967 0 00.03-.469z" fill="#D4B160"/></svg>