<svg width="31" height="31" fill="none" xmlns="http://www.w3.org/2000/svg"><path d="M15.5 3.313c-1.025 0-1.875.85-1.875 1.874 0 .337.102.663.264.938H8v2.227l.205.234 3.428 4.101a.941.941 0 00-.88.997c.034.516.48.912.997.879h.615L10.9 19.776l-.058.147-.615 1.201H8.85a.94.94 0 00-.894.981.94.94 0 00.981.894l-1.699 2.256-.176.234v2.198h16.875V25.49l-.175-.234-1.7-2.256a.943.943 0 00.825-.465.947.947 0 000-.945.943.943 0 00-.825-.465h-1.289l-.615-1.201-.03-.059-.028-.088-1.465-5.215h.615a.942.942 0 001.01-.864.942.942 0 00-.864-1.01l3.399-4.102.205-.234V6.125h-5.889c.162-.275.264-.6.264-.938 0-1.025-.85-1.875-1.875-1.875zM10.168 8h10.664l-3.896 4.688h-2.871L10.168 8zm4.16 6.563h2.344l1.67 5.888.03.088.292.586h-6.328l.293-.586.03-.088 1.67-5.889zM11.281 23h8.438l2.11 2.813H9.171L11.282 23z" fill="#D4B160"/></svg>