<svg width="31" height="31" fill="none" xmlns="http://www.w3.org/2000/svg"><path d="M15.5 3.313c-4.647 0-8.438 3.79-8.438 8.437 0 1.318.535 2.83 1.26 4.482.725 1.652 1.66 3.406 2.608 5.04a95.022 95.022 0 003.808 6.005l.762 1.114.762-1.114s1.911-2.735 3.808-6.006c.949-1.633 1.883-3.387 2.608-5.039.725-1.651 1.26-3.164 1.26-4.482 0-4.647-3.79-8.438-8.438-8.438zm0 1.874a6.547 6.547 0 016.563 6.563c0 .75-.403 2.172-1.084 3.72-.682 1.55-1.623 3.267-2.55 4.864-1.471 2.541-2.387 3.886-2.929 4.688-.542-.802-1.457-2.146-2.93-4.688-.926-1.597-1.867-3.314-2.549-4.863-.68-1.55-1.084-2.97-1.084-3.721A6.547 6.547 0 0115.5 5.187zm0 4.688a1.874 1.874 0 100 3.75 1.874 1.874 0 100-3.75z" fill="#D4B160"/></svg>