<svg width="35" height="35" fill="none" xmlns="http://www.w3.org/2000/svg"><path d="M9.467 3.281c-.572 0-1.136.205-1.606.581l-.068.034-.035.035L4.34 7.45l.035.034a3.428 3.428 0 00-.923 3.692c.004.008-.005.025 0 .034.927 2.653 3.298 7.776 7.93 12.407 4.648 4.649 9.839 6.926 12.407 7.93h.034a3.926 3.926 0 003.794-.752l3.452-3.452c.906-.906.906-2.478 0-3.384l-4.444-4.443-.034-.069c-.905-.905-2.512-.905-3.418 0l-2.187 2.188c-.79-.38-2.675-1.355-4.478-3.076-1.79-1.71-2.704-3.675-3.042-4.444l2.188-2.187c.918-.919.936-2.448-.034-3.35l.034-.034-.103-.103-4.375-4.511-.034-.035-.068-.034a2.577 2.577 0 00-1.607-.58zm0 2.188c.082 0 .163.038.24.102l4.375 4.478.102.102c-.008-.008.064.107-.068.24l-2.735 2.734-.512.479.239.683s1.256 3.362 3.896 5.879l.24.205c2.542 2.32 5.537 3.589 5.537 3.589l.683.308 3.248-3.248c.188-.188.153-.188.341 0l4.478 4.478c.188.188.188.12 0 .308l-3.35 3.35c-.504.43-1.038.52-1.675.307-2.478-.974-7.293-3.09-11.587-7.383-4.328-4.328-6.588-9.237-7.417-11.621-.166-.444-.046-1.102.342-1.436l.069-.068 3.315-3.384a.383.383 0 01.24-.102z" fill="#F7F7FF"/></svg>