<svg width="35" height="35" fill="none" xmlns="http://www.w3.org/2000/svg"><path fill-rule="evenodd" clip-rule="evenodd" d="M26.801 8.207a12.988 12.988 0 00-9.245-3.832c-7.204 0-13.07 5.862-13.07 13.065a12.996 12.996 0 001.743 6.533l-1.854 6.772 6.93-1.82a13.08 13.08 0 006.246 1.593h.005c7.203 0 13.065-5.862 13.069-13.07 0-3.49-1.359-6.771-3.824-9.24zM17.556 28.31h-.005c-1.948 0-3.862-.525-5.528-1.512l-.398-.235-4.114 1.076 1.098-4.007-.256-.41a10.832 10.832 0 01-1.662-5.78c0-5.986 4.875-10.857 10.869-10.857 2.9 0 5.627 1.132 7.677 3.183a10.8 10.8 0 013.18 7.682c0 5.99-4.876 10.86-10.862 10.86zm5.955-8.134c-.324-.163-1.93-.953-2.23-1.06-.299-.111-.517-.162-.735.162-.218.33-.841 1.064-1.034 1.282-.188.214-.38.244-.705.081-.329-.162-1.38-.508-2.627-1.623-.97-.863-1.628-1.936-1.816-2.26-.192-.33-.021-.505.141-.667.15-.145.329-.38.491-.572.163-.188.218-.325.33-.543.106-.218.05-.41-.03-.572-.082-.163-.736-1.774-1.009-2.427-.265-.637-.534-.547-.735-.56-.188-.008-.406-.008-.623-.008-.218 0-.573.08-.872.41-.3.324-1.14 1.115-1.14 2.721 0 1.607 1.17 3.162 1.332 3.38.162.213 2.303 3.512 5.58 4.926a18.43 18.43 0 001.858.688c.782.247 1.496.213 2.06.132.628-.094 1.931-.79 2.204-1.555.27-.76.27-1.414.188-1.55-.08-.138-.299-.219-.628-.385z" fill="#D4B160"/></svg>