<svg width="31" height="31" fill="none" xmlns="http://www.w3.org/2000/svg"><g clip-path="url(#clip0_271_4953)"><path d="M15.5 5.07l-.44.235-12.656 6.562-1.611.82 1.582.792v7.91c-.56.326-.938.919-.938 1.611a1.874 1.874 0 103.75 0c0-.692-.377-1.285-.937-1.611v-6.944l1.875.967v4.776c0 .413.19.787.41 1.025.22.238.487.38.762.527.553.29 1.208.495 2.021.674 1.626.363 3.794.586 6.182.586 2.388 0 4.556-.223 6.182-.586.813-.18 1.468-.384 2.021-.674.275-.146.542-.289.762-.527.22-.238.41-.612.41-1.025v-4.776l3.72-1.904 1.612-.82-1.611-.82L15.94 5.304l-.44-.235zm0 2.11l10.605 5.508-1.67.85a2.78 2.78 0 00-.732-.528c-.55-.29-1.208-.495-2.021-.674-1.623-.363-3.783-.586-6.182-.586-2.399 0-4.56.223-6.182.586-.813.18-1.472.384-2.021.674-.264.139-.52.304-.733.527l-1.67-.85L15.5 7.18zm0 6.445c2.289 0 4.347.209 5.771.527.71.158 1.282.341 1.582.498.096.052.11.088.147.118v3.574c-.392-.143-.82-.271-1.318-.381-1.626-.363-3.794-.586-6.182-.586-2.388 0-4.556.223-6.182.586-.498.11-.926.238-1.318.38v-3.573c.037-.03.051-.066.146-.118.3-.157.872-.34 1.583-.498 1.424-.318 3.482-.527 5.771-.527zm0 5.625c2.274 0 4.343.209 5.771.527a6.76 6.76 0 011.29.41c-.323.14-.696.279-1.29.41-1.428.32-3.497.528-5.771.528s-4.343-.209-5.771-.527a6.724 6.724 0 01-1.29-.41c.323-.14.696-.279 1.29-.41 1.428-.32 3.497-.528 5.771-.528z" fill="#D4B160"/></g><defs><clipPath id="clip0_271_4953"><path fill="#fff" transform="translate(.5 .5)" d="M0 0h30v30H0z"/></clipPath></defs></svg>