<svg width="31" height="31" fill="none" xmlns="http://www.w3.org/2000/svg"><path d="M18.605 7.033c-.52.004-1.036.03-1.582.176a5.65 5.65 0 00-1.67.762c-.717-.422-1.413-.77-2.08-.85-.827-.103-1.596-.048-2.49-.03-1.058.023-1.75.565-2.87.997-1.122.432-2.564.85-4.6.85h-.938v9.023l.527.264 1.729.85 6.152 6.855.03.029c.703.696 1.651.868 2.49.82a4.94 4.94 0 002.256-.674c1.384-.835 5.156-3.457 5.156-3.457l.088-.058.058-.059c.447-.443.67-.985.82-1.553l3.604-1.816 2.695-.908.645-.205V8.937h-.938c-2.032 0-3.479-.439-4.6-.878-1.12-.44-1.8-.975-2.87-.997-.572-.01-1.091-.033-1.611-.029zm.03 1.875c.42-.004.908.018 1.523.03.1.003 1 .388 2.256.878 1.062.418 2.538.788 4.336.909V16.7l-2.168.732h-.059l-.058.03-2.842 1.435a3.327 3.327 0 00-.703-1.171l-.059-.088-3.984-4.893-.586-.732-.732.586-2.52 2.05c-.846.586-1.53.418-2.226.088-.202-.095-.19-.124-.352-.234l4.277-3.545.059-.059c1.27-1.26 2.05-1.695 2.724-1.875.337-.091.693-.113 1.114-.117zm-6.533.03c.358-.008.659-.004.937.029.245.029.524.238.762.322-.095.088-.165.14-.264.234l-.059.059-5.126 4.248-.791.645.703.732s.677.732 1.728 1.23 2.673.78 4.131-.234l.059-.059 1.816-1.494 3.457 4.248.03.059.029.03c.619.61.604 1.574 0 2.197-.008.007.007.021 0 .029a3.8 3.8 0 00-.147.088l-1.23-1.67-1.524 1.113 1.201 1.611c-.487.33-.706.502-1.23.85l-1.26-1.7-1.523 1.114 1.201 1.611c-.106.066-.326.213-.41.264-.297.18-.868.38-1.377.41-.48.026-.846-.084-1.025-.234l-.03-.03-6.27-6.943-.117-.146-1.523-.762v-6.065c1.79-.117 3.278-.472 4.336-.878 1.252-.48 2.146-.876 2.256-.88.48-.01.9-.021 1.26-.029z" fill="#D4B160"/></svg>