<svg width="31" height="31" fill="none" xmlns="http://www.w3.org/2000/svg"><path d="M11.75 2.375c-3.614 0-6.563 2.948-6.563 6.563a6.585 6.585 0 002.9 5.449C4.745 15.822 2.376 19.14 2.376 23H4.25c0-4.153 3.347-7.5 7.5-7.5 1.29 0 2.49.337 3.545.908a7.506 7.506 0 00-1.67 4.717c0 4.13 3.37 7.5 7.5 7.5s7.5-3.37 7.5-7.5-3.37-7.5-7.5-7.5c-1.637 0-3.16.538-4.395 1.436a9.502 9.502 0 00-1.318-.674 6.585 6.585 0 002.9-5.45c0-3.614-2.948-6.562-6.562-6.562zm0 1.875c2.6 0 4.688 2.087 4.688 4.688 0 2.6-2.088 4.687-4.688 4.687a4.673 4.673 0 01-4.688-4.687c0-2.6 2.088-4.688 4.688-4.688zm9.375 11.25a5.612 5.612 0 015.625 5.625 5.612 5.612 0 01-5.625 5.625 5.612 5.612 0 01-5.625-5.625 5.612 5.612 0 015.625-5.625zm3.076 3.076l-3.076 3.076-2.139-2.138-1.347 1.347 2.812 2.813.674.644.674-.644 3.75-3.75-1.348-1.348z" fill="#D4B160"/></svg>