<svg width="31" height="31" fill="none" xmlns="http://www.w3.org/2000/svg"><path d="M15.5 2.375c-1.181 0-2.015.834-2.428 1.875H5.188v23.438h20.625V4.25h-7.885c-.413-1.04-1.247-1.875-2.428-1.875zm0 1.875a.94.94 0 01.938.938v.937h2.812V8h-7.5V6.125h2.813v-.938a.94.94 0 01.937-.937zM7.062 6.125h2.813v3.75h11.25v-3.75h2.813v19.688H7.063V6.125zm1.875 6.563v1.874h1.876v-1.874H8.937zm3.75 0v1.874h9.376v-1.874h-9.375zm-3.75 3.75v1.875h1.876v-1.875H8.937zm3.75 0v1.875h9.376v-1.875h-9.375zm-3.75 3.75v1.875h1.876v-1.875H8.937zm3.75 0v1.875h9.376v-1.875h-9.375z" fill="#D4B160"/></svg>