<svg width="31" height="31" fill="none" xmlns="http://www.w3.org/2000/svg"><path d="M18.605 7.033c-.52.004-1.036.03-1.582.176a5.65 5.65 0 00-1.67.762c-.717-.421-1.413-.77-2.08-.85-.827-.102-1.596-.047-2.49-.03-1.058.023-1.75.565-2.87.997-1.122.432-2.564.85-4.6.85h-.938v9.023l.527.264 1.729.85 6.152 6.855.03.03c.703.695 1.651.867 2.49.82a4.94 4.94 0 002.256-.675c1.384-.834 5.156-3.457 5.156-3.457l.088-.058.058-.059c.447-.443.67-.985.82-1.552l3.604-1.817 2.695-.908.645-.205V8.938h-.938a12.03 12.03 0 01-4.6-.88c-1.12-.439-1.8-.973-2.87-.995-.572-.011-1.091-.033-1.611-.03zm.03 1.875c.42-.003.908.019 1.523.03.1.003 1 .388 2.256.878 1.062.418 2.538.788 4.336.909V16.7l-2.168.733h-.059l-.058.029-2.842 1.435a3.327 3.327 0 00-.703-1.171l-.059-.088-3.984-4.893-.586-.732-.732.586-2.52 2.05c-.846.586-1.53.418-2.226.088-.202-.095-.19-.124-.352-.234l4.277-3.545.059-.059c1.27-1.26 2.05-1.695 2.724-1.875.337-.091.693-.113 1.114-.117zm-6.533.03c.358-.008.659-.004.937.029.245.03.524.238.762.322-.095.088-.165.14-.264.235l-.059.058-5.126 4.248-.791.645.703.732s.677.732 1.728 1.23c1.051.499 2.673.78 4.131-.234l.059-.058 1.816-1.495 3.457 4.248.03.06.029.028c.619.612.604 1.575 0 2.198-.008.007.007.022 0 .029a3.677 3.677 0 00-.147.088l-1.23-1.67-1.524 1.113 1.201 1.611c-.487.33-.706.502-1.23.85l-1.26-1.7-1.523 1.114 1.201 1.611c-.106.067-.326.213-.41.264-.297.18-.868.381-1.377.41-.48.026-.846-.084-1.025-.234l-.03-.03-6.27-6.943-.117-.146-1.523-.762v-6.064c1.79-.117 3.278-.473 4.336-.88 1.252-.479 2.146-.874 2.256-.878l1.26-.03z" fill="#D4B160"/></svg>