<svg width="75" height="16" fill="none" xmlns="http://www.w3.org/2000/svg"><path d="M4.615 9.534l2.53-6.487h1.893L5.58 11.195c-.11.251-.235.495-.376.732-.137.232-.303.44-.499.622a2.227 2.227 0 01-.71.437c-.279.105-.616.158-1.013.158a6.501 6.501 0 01-.704-.042l.014-1.346c.055.009.146.016.273.02.133.005.228.007.288.007.264 0 .474-.043.628-.13.155-.09.278-.212.37-.362.095-.155.18-.324.253-.506l.512-1.25zm-1.9-6.487l2.502 5.51.492 1.79-1.333.049-3.534-7.35h1.873zM16.059 9.76h1.709a3.944 3.944 0 01-.547 1.743c-.31.506-.745.905-1.306 1.196-.56.292-1.242.438-2.044.438a4.06 4.06 0 01-1.661-.328 3.642 3.642 0 01-1.265-.944c-.35-.41-.62-.904-.806-1.483a6.445 6.445 0 01-.274-1.942v-.827a6.3 6.3 0 01.28-1.941 4.293 4.293 0 01.82-1.484 3.547 3.547 0 011.28-.95 4.18 4.18 0 011.688-.328c.793 0 1.463.146 2.01.438.546.291.97.695 1.27 1.21a4.27 4.27 0 01.561 1.77h-1.709a3.158 3.158 0 00-.3-1.1 1.55 1.55 0 00-.67-.698c-.296-.164-.684-.246-1.162-.246-.392 0-.734.073-1.026.219-.291.146-.535.36-.731.643a3.097 3.097 0 00-.445 1.045c-.095.41-.143.88-.143 1.409v.84c0 .502.043.957.13 1.368.09.405.228.754.41 1.046.187.291.424.517.71.676.288.16.632.24 1.033.24.488 0 .882-.078 1.183-.233a1.55 1.55 0 00.69-.677c.16-.3.265-.667.315-1.1zm9.796-6.713v1.367h-4.772V3.047h4.772zm1.312 0V13h-1.716V3.047h1.716zm-6.426 0h1.702l-.239 4.942a16.238 16.238 0 01-.184 1.914 6.974 6.974 0 01-.37 1.415 2.97 2.97 0 01-.587.964 2.187 2.187 0 01-.855.547 3.521 3.521 0 01-1.155.171h-.438v-1.36l.267-.02c.241-.02.449-.076.622-.172.178-.1.328-.246.451-.437.123-.196.226-.45.308-.759a7.54 7.54 0 00.191-1.135c.05-.446.087-.968.11-1.565l.177-4.505zm11.587 6.487l2.53-6.487h1.893l-3.459 8.148c-.11.251-.235.495-.376.732-.137.232-.303.44-.499.622a2.228 2.228 0 01-.71.437c-.279.105-.616.158-1.013.158a6.502 6.502 0 01-.704-.042l.014-1.346c.055.009.146.016.273.02.133.005.228.007.287.007.265 0 .474-.043.63-.13.154-.09.277-.212.369-.362a3.27 3.27 0 00.252-.506l.513-1.25zm-1.9-6.487l2.502 5.51.492 1.79-1.333.049-3.534-7.35h1.873zm13.993 0v1.367H39.8V13h-1.71V3.047h6.33zm3.124 7.157l4.416-7.157h1.716V13H51.96V5.836L47.545 13h-1.71V3.047h1.71v7.157z" fill="#F7F7FF"/><path fill-rule="evenodd" clip-rule="evenodd" d="M60.662 4.744a.682.682 0 01.464-.242.659.659 0 01.493.167l5.89 5.21 5.888-5.21a.664.664 0 01.94.09.715.715 0 01-.057.972l-6.33 5.6a.666.666 0 01-.883 0l-6.33-5.6a.714.714 0 01-.073-.987h-.002z" fill="#F7F7FF"/></svg>